<?xml version="1.0" standalone="no"?>
<!DOCTYPE svg PUBLIC "-//W3C//DTD SVG 20010904//EN"
 "http://www.w3.org/TR/2001/REC-SVG-20010904/DTD/svg10.dtd">
<svg version="1.0" xmlns="http://www.w3.org/2000/svg"
 width="200.000000pt" height="200.000000pt" viewBox="0 0 200.000000 200.000000"
 preserveAspectRatio="xMidYMid meet">
<metadata>
Created by potrace 1.11, written by Peter Selinger 2001-2013
</metadata>
<g transform="translate(0.000000,200.000000) scale(0.100000,-0.100000)"
fill="#000000" stroke="none">
<path d="M0 1000 l0 -1000 1000 0 1000 0 0 1000 0 1000 -1000 0 -1000 0 0
-1000z m250 -607 c0 -37 3 -44 12 -35 7 7 24 12 40 12 45 0 59 -33 56 -131 -3
-83 -3 -84 -30 -87 l-27 -3 -3 88 c-3 80 -5 88 -23 88 -18 0 -20 -8 -23 -87
l-3 -88 -29 0 -30 0 0 145 0 145 30 0 c29 0 30 -1 30 -47z m388 25 c-2 -17
-11 -24 -30 -26 -24 -3 -28 0 -28 22 0 22 4 26 31 26 26 0 30 -3 27 -22z m372
-123 l0 -145 -30 0 c-17 0 -30 5 -30 12 0 9 -3 9 -12 0 -20 -20 -65 -14 -82
10 -22 31 -22 146 0 177 14 20 23 22 55 18 l39 -5 0 39 c0 37 2 39 30 39 l30
0 0 -145z m150 0 c0 -90 -4 -145 -10 -145 -6 0 -10 55 -10 145 0 90 4 145 10
145 6 0 10 -55 10 -145z m240 100 c0 -42 11 -58 25 -35 12 19 53 10 74 -16 35
-44 26 -160 -13 -186 -17 -12 -61 -9 -74 4 -9 9 -12 9 -12 0 0 -7 -4 -12 -10
-12 -6 0 -10 55 -10 145 0 90 4 145 10 145 6 0 10 -20 10 -45z m-884 -33 c13
-8 34 -46 34 -61 0 -6 -12 -11 -26 -11 -17 0 -28 6 -31 20 -6 24 -38 27 -47 4
-3 -9 -6 -33 -6 -54 0 -51 8 -70 30 -70 12 0 20 9 22 23 2 16 11 23 31 25 34
4 37 -23 6 -62 -28 -36 -101 -38 -123 -3 -34 52 -27 164 12 186 20 12 82 14
98 3z m119 -102 l0 -105 -27 -3 -28 -3 0 111 0 111 28 -3 27 -3 0 -105z m676
100 c16 -9 19 -22 19 -93 0 -51 5 -88 12 -95 17 -17 0 -28 -22 -14 -12 7 -21
8 -25 2 -11 -18 -74 -11 -85 9 -27 51 -6 88 59 106 28 8 36 16 36 34 0 46 -61
55 -72 11 -7 -26 -23 -26 -23 -1 0 43 55 65 101 41z m-563 -68 c-2 -22 1 -26
16 -24 10 2 25 0 35 -4 12 -5 7 -9 -19 -13 -31 -5 -35 -9 -32 -33 2 -16 -1
-28 -7 -28 -6 0 -11 14 -11 30 0 27 -3 30 -30 30 -16 0 -30 5 -30 11 0 6 12 9
28 7 24 -3 27 1 30 30 2 18 8 30 13 26 6 -3 9 -18 7 -32z m852 -123 c0 -10 -7
-19 -15 -19 -15 0 -21 31 -9 43 11 10 24 -3 24 -24z"/>
<path d="M900 304 c-6 -14 -10 -34 -10 -44 0 -53 39 -92 54 -54 8 20 8 88 0
108 -9 24 -33 19 -44 -10z"/>
<path d="M1420 335 c-19 -23 -23 -105 -8 -135 16 -29 42 -37 63 -20 18 15 21
121 5 151 -13 23 -43 25 -60 4z"/>
<path d="M1270 255 c-31 -10 -35 -16 -35 -46 0 -27 4 -35 22 -37 27 -4 56 36
51 71 -3 23 -5 23 -38 12z"/>
</g>
</svg>
